<?xml version="1.0" standalone="no"?>
<!DOCTYPE svg PUBLIC "-//W3C//DTD SVG 1.1//EN" "http://www.w3.org/Graphics/SVG/1.1/DTD/svg11.dtd" >
<svg xmlns="http://www.w3.org/2000/svg">
<metadata>Generated by IcoMoon</metadata>
<defs>
<font id="icomoon" horiz-adv-x="1024">
<font-face units-per-em="1024" ascent="960" descent="-64" />
<missing-glyph horiz-adv-x="1024" />
<glyph unicode="&#x20;" horiz-adv-x="512" d="" />
<glyph unicode="&#xe700;" d="M0 869.146v-688.552h988.69v688.552z" />
<glyph unicode="&#xe701;" d="M546.692 478.844c-28.902-25.812-75.776-25.812-104.695 0l-36.846 32.538c-115.271-102.894-405.151-330.787-405.151-330.787h988.69c0 0-289.88 227.911-405.151 330.787l-36.846-32.538z" />
<glyph unicode="&#xe702;" d="M0 869.146l441.997-390.303c28.902-25.812 75.776-25.812 104.695 0l441.997 390.303h-988.69z" />
<glyph unicode="&#xe703;" d="M645.579 194.454l-0.124-0.124-35.098-128.706 82.026 82.044z" />
<glyph unicode="&#xe704;" d="M985.441 440.726l-22.016 22.016c-13.683 13.683-35.875 13.683-49.558 0l-63.241-63.241 46.804-46.804 88.011 88.029z" />
<glyph unicode="&#xe705;" d="M850.625 399.516l46.802-46.802-205.037-205.037-46.802 46.802 205.037 205.037z" />
<glyph unicode="&#xe706;" d="M745.331 94.455l0.124 0.124-53.071 53.089-82.026-82.044-2.366-8.616z" />
<glyph unicode="&#xe707;" d="M950.502 299.626l63.241 63.241c13.683 13.683 13.683 35.875 0 49.558l-28.284 28.284-88.011-88.011 53.054-53.071z" />
<glyph unicode="&#xe708;" d="M745.448 94.566l-53.069 53.069 205.037 205.037 53.069-53.069-205.037-205.037z" />
<glyph unicode="&#xe709;" d="M595.509 26.854c-4.52 0-9.039 1.73-12.482 5.173-6.903 6.903-6.903 18.061 0 24.964l38.965 38.965c6.903 6.903 18.061 6.903 24.964 0s6.903-18.061 0-24.964l-38.965-38.965c-3.443-3.443-7.962-5.173-12.482-5.173z" />
<glyph unicode="&#xe800;" d="M0 960h1024v-1024h-1024v1024z" />
<glyph unicode="&#xe801;" d="M240.995 804.478c46.9-0.038 85.581-38.775 85.48-85.909-0.112-49.354-41.070-86.552-86.058-85.48-45.631-0.923-85.732 37.189-85.723 85.806 0 47.152 38.832 85.62 86.3 85.584z" />
<glyph unicode="&#xe802;" d="M290.824 91.623h-100.485c-13.041 0-23.613 10.572-23.613 23.613v428.676c0 13.041 10.572 23.613 23.613 23.613h100.485c13.041 0 23.613-10.572 23.613-23.613v-428.678c-0.002-13.039-10.572-23.611-23.613-23.611z" />
<glyph unicode="&#xe803;" d="M869.305 416.955c0 89.869-72.853 162.723-162.723 162.723h-25.772c-49.168 0-92.605-24.532-118.733-62.029-2.849-4.087-5.487-8.332-7.909-12.713-0.838 0.126-1.335 0.191-1.346 0.169v52.619c0 5.413-4.388 9.803-9.803 9.803h-125.368c-5.413 0-9.803-4.388-9.803-9.803v-456.302c0-5.413 4.386-9.801 9.799-9.803l128.1-0.031c5.415-0.002 9.806 4.388 9.806 9.803v263.618c0 45.568 36.344 83.404 81.91 83.919 23.26 0.263 44.348-9.057 59.546-24.265 14.998-14.989 24.271-35.715 24.271-58.598v-264.707c0-5.413 4.388-9.801 9.799-9.803l128.417-0.031c5.415-0.002 9.806 4.388 9.806 9.803v315.63z" />
<glyph unicode="&#xe900;" d="M363.355 613.161h-264.258v132.129h264.258v-132.129z" />
<glyph unicode="&#xe901;" d="M363.355 448h-264.258v132.129h264.258v-132.129z" />
<glyph unicode="&#xe902;" d="M363.355 282.839h-264.258v132.129h264.258v-132.129z" />
<glyph unicode="&#xe903;" d="M1024-64h-264.258v1024h264.258v-1024z" />
<glyph unicode="&#xe904;" d="M429.419 811.355h-33.032v66.065h-45.172l-119.99 68.575-119.99-68.575h-45.172v-66.065h-33.032v-842.323h-33.032v-33.032h462.452v33.032h-33.032v842.323zM231.226 907.941l53.413-30.522h-106.843l53.43 30.522zM66.065 778.323h198.194v33.032h-165.161v33.032h264.258v-33.032h-66.065v-33.032h99.097v-809.29h-66.065v148.645h33.032v33.032h-264.258v-33.032h33.032v-148.645h-66.065v809.29zM214.71 117.677v-148.645h-49.548v148.645h49.548zM247.742 117.677h49.548v-148.645h-49.548v148.645z" />
<glyph unicode="&#xe905;" d="M99.097 216.774h264.258v-33.032h-264.258v33.032z" />
<glyph unicode="&#xe906;" d="M924.903 35.097h99.097v-33.032h-99.097v33.032z" />
<glyph unicode="&#xe907;" d="M924.903 101.161h99.097v-33.032h-99.097v33.032z" />
<glyph unicode="&#xe908;" d="M891.871 167.226h132.129v-33.032h-132.129v33.032z" />
<glyph unicode="&#xe909;" d="M924.903 233.29h99.097v-33.032h-99.097v33.032z" />
<glyph unicode="&#xe90a;" d="M924.903 299.355h99.097v-33.032h-99.097v33.032z" />
<glyph unicode="&#xe90b;" d="M891.871 365.419h132.129v-33.032h-132.129v33.032z" />
<glyph unicode="&#xe90c;" d="M924.903 431.484h99.097v-33.032h-99.097v33.032z" />
<glyph unicode="&#xe90d;" d="M924.903 497.548h99.097v-33.032h-99.097v33.032z" />
<glyph unicode="&#xe90e;" d="M891.871 563.613h132.129v-33.032h-132.129v33.032z" />
<glyph unicode="&#xe90f;" d="M924.903 629.677h99.097v-33.032h-99.097v33.032z" />
<glyph unicode="&#xe910;" d="M924.903 695.742h99.097v-33.032h-99.097v33.032z" />
<glyph unicode="&#xe911;" d="M891.871 761.806h132.129v-33.032h-132.129v33.032z" />
<glyph unicode="&#xe912;" d="M924.903 827.871h99.097v-33.032h-99.097v33.032z" />
<glyph unicode="&#xe913;" d="M924.903 893.935h99.097v-33.032h-99.097v33.032z" />
<glyph unicode="&#xe914;" d="M495.484 960h231.226v-33.032h-231.226v33.032z" />
<glyph unicode="&#xe915;" d="M495.484-30.968h231.226v-33.032h-231.226v33.032z" />
<glyph unicode="&#xe916;" d="M523.677 129.354l-23.354-23.354 110.774-110.774 110.774 110.774-23.354 23.354-70.904-70.904v779.099l70.904-70.904 23.354 23.354-110.774 110.774-110.774-110.774 23.354-23.354 70.904 70.904v-779.099z" />
<glyph unicode="&#xe917;" d="M919.166 677.791v0 0 0c0 121.396-94.132 220.797-213.378 229.217v16.988c0 9.060-7.353 16.414-16.414 16.414h-32.827c-9.060 0-16.414-7.353-16.414-16.414v-16.988c-119.245-8.42-213.378-107.821-213.378-229.217v0c0 0 0 0 0.016 0h-0.016c-9.060 0-16.414-7.353-16.414-16.414v-32.827c0-9.060 7.353-16.414 16.414-16.414h492.41c9.060 0 16.414 7.353 16.414 16.414v32.827c0 9.060-7.353 16.414-16.414 16.414z" />
<glyph unicode="&#xe918;" d="M763.236 480.827c22.634 0 41.034 18.4 41.034 41.034s-18.4 41.034-41.034 41.034-41.034-18.4-41.034-41.034 18.4-41.034 41.034-41.034zM763.236 530.068c4.514 0 8.207-3.693 8.207-8.207s-3.693-8.207-8.207-8.207-8.207 3.693-8.207 8.207 3.693 8.207 8.207 8.207z" />
<glyph unicode="&#xe919;" d="M623.72 521.862c0 22.634-18.4 41.034-41.034 41.034s-41.034-18.4-41.034-41.034 18.4-41.034 41.034-41.034 41.034 18.4 41.034 41.034zM582.685 513.655c-4.514 0-8.207 3.693-8.207 8.207s3.693 8.207 8.207 8.207 8.207-3.693 8.207-8.207-3.693-8.207-8.207-8.207z" />
<glyph unicode="&#xe91a;" d="M755.029 415.173h-32.827c0-27.148-22.093-49.241-49.241-49.241s-49.241 22.093-49.241 49.241h-32.827c0-45.253 36.816-82.068 82.068-82.068s82.068 36.816 82.068 82.068z" />
<glyph unicode="&#xe91b;" d="M213.378 365.932c27.148 0 49.241 22.093 49.241 49.241s-22.093 49.241-49.241 49.241-49.241-22.093-49.241-49.241 22.093-49.241 49.241-49.241zM213.378 431.586c9.060 0 16.414-7.353 16.414-16.414s-7.353-16.414-16.414-16.414-16.414 7.353-16.414 16.414 7.353 16.414 16.414 16.414z" />
<glyph unicode="&#xe91c;" d="M422.045 37.658h601.955l-54.116 162.331c-13.492 40.476-48.026 69.988-90.111 76.98l-107.132 17.858c44.694 26.377 78.014 69.824 91.063 121.379 40.41 5.088 71.875 39.278 71.875 81.034v103.045c9.766 5.696 16.414 16.167 16.414 28.264v32.827c0 12.327-6.927 22.963-17.005 28.576-5.876 118.096-96.004 215.938-212.787 231.597v2.446c0 18.104-14.723 32.827-32.827 32.827h-32.827c-18.104 0-32.827-14.723-32.827-32.827v-2.446c-116.783-15.659-206.911-113.501-212.787-231.581-10.078-5.63-17.005-16.266-17.005-28.593v-32.827c0-12.097 6.648-22.569 16.414-28.264v-103.045c0-41.756 31.465-75.946 71.875-81.034 13.049-51.555 46.369-94.986 91.063-121.379l-107.132-17.858c-36.996-6.155-68.117-29.725-84.284-62.815l-70.004 219.976v20.435h-0.164c-0.804 28.79-21.617 52.606-49.077 57.924v99.647h-98.482v-99.647c-27.46-5.302-48.256-29.134-49.077-57.924h-0.164v-20.435l-112.319-352.976c-1.707-5.367-2.577-10.981-2.577-16.627v-4.826c0-22.405 13.541-41.641 32.827-50.16v-70.365h32.827v66.853c18.646 3.759 34.436 16.972 40.952 35.388l27.641 78.31h158.277l27.641-78.31c6.5-18.416 22.29-31.629 40.936-35.388v-66.853h32.827v70.365c12.524 5.531 22.585 15.593 28.117 28.117zM560.921 205.751l23.028 57.563 9.175 1.526c1.050-4.415 2.478-8.683 4.218-12.803l38.9-181.552h-5.728l-53.673 53.689 16.414 49.241-32.335 32.335zM761.972 263.33l23.028-57.563-32.351-32.351 16.414-49.241-53.656-53.689h-5.728l38.9 181.568c1.74 4.12 3.168 8.387 4.218 12.803l9.175-1.526zM676.112 70.485h-6.303l-29.676 138.466c10.094-4.448 21.108-7.156 32.827-7.156s22.733 2.708 32.811 7.156l-29.66-138.466zM717.343 262.903c-7.911-16.66-24.752-28.281-44.383-28.281s-36.471 11.621-44.383 28.281l-2.216 10.341c14.969-3.644 30.513-5.794 46.598-5.794s31.629 2.15 46.598 5.794l-2.216-10.341zM938.764 189.599l39.688-119.114h-78.654l-13.771 68.872-32.187-6.451 12.474-62.421h-104.489l44.809 44.793-16.414 49.241 33.303 33.303-23.669 59.171 74.535-12.425c30.070-4.99 54.723-26.049 64.374-54.969zM902.752 595.723v-33.254c-9.586 7.255-20.632 12.688-32.827 15.166v18.088h32.827zM869.235 450.807c0.312 4.514 0.689 9.011 0.689 13.607v79.048c19.056-6.795 32.827-24.85 32.827-46.221 0-21.617-14.099-39.836-33.517-46.434zM901.948 694.205h-32.023v-32.827h49.241v-32.827h-492.41v32.827h410.342v32.827h-61.994l32.663 160.69c52.951-35.618 89.044-94.132 94.182-160.69zM475.997 595.723v-18.071c-12.195-2.495-23.242-7.911-32.827-15.166v33.238h32.827zM656.547 923.997h32.827v-164.137h-32.827l-0.033 164.137h0.033zM656.547 727.032h32.827c18.104 0 32.827 14.723 32.827 32.827v128.683c19.532-3.037 38.129-8.765 55.495-16.742l-36.094-177.596h-137.3l-36.061 177.596c17.366 7.977 35.946 13.705 55.478 16.742v-128.683c0-18.104 14.723-32.827 32.827-32.827zM538.155 854.895l32.647-160.69h-126.828c5.137 66.557 41.231 125.072 94.182 160.69zM443.169 497.241c0 21.371 13.771 39.426 32.827 46.221v-79.048c0-4.596 0.378-9.093 0.689-13.607-19.417 6.598-33.517 24.817-33.517 46.434zM508.824 464.414v131.309h328.274v-131.309c0-90.505-73.632-164.137-164.137-164.137s-164.137 73.632-164.137 164.137zM407.158 189.599c9.651 28.921 34.321 49.98 64.374 55.002l74.535 12.425-23.669-59.171 33.303-33.303-16.414-49.241 44.809-44.826h-104.489l12.491 62.438-32.187 6.451-13.787-68.888h-19.828c-0.394 3.611-1.018 7.206-2.117 10.652l-25.966 81.609 8.945 26.853zM229.791 579.309v-65.655h-32.827v65.655h32.827zM175.676 480.827h75.404c15.412 0 27.952-12.54 27.952-27.952 0-2.052-0.23-4.087-0.673-6.073l-24.046-108.215c-2.872-12.885-14.083-21.896-27.296-21.896h-27.28c-13.213 0-24.424 9.011-27.296 21.896l-24.062 108.232c-0.427 1.97-0.657 4.005-0.657 6.057 0 15.412 12.54 27.952 27.952 27.952zM199.738 283.863h27.28c2.495 0 4.924 0.328 7.353 0.624l23.389-66.278h-88.765l23.389 66.278c2.429-0.295 4.858-0.624 7.353-0.624zM75.651 52.365c-3.102-8.798-11.457-14.707-20.78-14.707-12.146 0-22.044 9.897-22.044 22.044v4.826c0 2.282 0.345 4.514 1.034 6.68l96.775 304.129 9.75-43.874c3.151-14.149 10.948-26.131 21.584-34.534l-86.32-244.564zM145.836 152.554l11.588 32.827h111.941l11.588-32.827h-135.117zM393.928 59.702c0-12.146-9.897-22.044-22.044-22.044-9.323 0-17.678 5.909-20.78 14.707l-86.32 244.58c10.62 8.404 18.416 20.386 21.584 34.534l9.75 43.874 96.775-304.145c0.689-2.167 1.034-4.415 1.034-6.68v-4.826z" />
<glyph unicode="&#xe91d;" d="M462.452 35.097h99.097v-33.032h-99.097v33.032z" />
<glyph unicode="&#xe91e;" d="M336.534 17.387l-12.268-30.67-82.582 33.033 12.268 30.67 82.582-33.033z" />
<glyph unicode="&#xe91f;" d="M782.412 19.85l-82.589-33.005-12.258 30.674 82.589 33.005 12.258-30.674z" />
<glyph unicode="&#xe920;" d="M512 596.645c-63.736 0-115.613 51.877-115.613 115.613s51.877 115.613 115.613 115.613 115.613-51.877 115.613-115.613-51.877-115.613-115.613-115.613z" />
<glyph unicode="&#xe921;" d="M512 629.677c45.535 0 82.581 37.046 82.581 82.581s-37.046 82.581-82.581 82.581-82.581-37.046-82.581-82.581 37.046-82.581 82.581-82.581zM512 761.806c27.318 0 49.548-22.231 49.548-49.548s-22.231-49.548-49.548-49.548-49.548 22.231-49.548 49.548 22.231 49.548 49.548 49.548z" />
<glyph unicode="&#xe922;" d="M805.145 15.624l-161.016 402.531v29.845h33.032c18.217 0 33.032 14.815 33.032 33.032v19.555c19.175 6.838 33.032 25.005 33.032 46.509s-13.857 39.672-33.032 46.509v151.684c0 18.217-14.815 33.032-33.032 33.032v132.129c0 27.318-22.231 49.548-49.548 49.548h-231.226c-27.318 0-49.548-22.231-49.548-49.548v-132.129c-18.217 0-33.032-14.815-33.032-33.032v-264.258c0-18.217 14.815-33.032 33.032-33.032h33.032v-29.845l-161.032-402.564c-2.742-6.92-4.129-14.154-4.129-21.521 0-32.025 26.046-58.071 58.071-58.071h12.404c23.915 0 45.733 15.030 54.255 37.393l106.496 279.552v-267.396c0-27.318 22.231-49.548 49.548-49.548h33.032c27.318 0 49.548 22.231 49.548 49.548v267.396l106.496-279.569c8.539-22.346 30.34-37.376 54.255-37.376h12.404c32.025 0 58.071 26.046 58.071 58.071 0 7.366-1.387 14.6-4.146 21.554zM594.581 481.032h-99.097v33.032h99.097v-33.032zM693.677 530.581c-9.117 0-16.516 7.399-16.516 16.516s7.399 16.516 16.516 16.516 16.516-7.399 16.516-16.516-7.399-16.516-16.516-16.516zM379.871 910.452c0 9.117 7.399 16.516 16.516 16.516h231.226c9.117 0 16.516-7.399 16.516-16.516v-132.129h-16.516c-6.045 0-11.644-1.751-16.516-4.591v120.204h-198.194v-120.204c-4.872 2.841-10.471 4.591-16.516 4.591h-16.516v132.129zM396.387 745.29v-33.032c0 39.176 19.638 73.811 49.548 94.737v53.909h132.129v-53.909c29.911-20.926 49.548-55.56 49.548-94.737v33.032h49.548v-151.684c-19.175-6.838-33.032-25.005-33.032-46.509s13.857-39.672 33.032-46.509v-19.555h-49.548v33.032c0 18.217-14.815 33.032-33.032 33.032h-99.097c-18.217 0-33.032-14.815-33.032-33.032v-33.032h-33.032v82.581c0 18.217-14.815 33.032-33.032 33.032h-49.548v148.645h49.548zM346.839 563.613h49.548v-82.581h-49.548v82.581zM611.097 448v-33.032h-66.065v-33.032h33.032v-66.065h-132.129v66.065h66.065v33.032h-99.097v33.032h198.194zM308.571-14.831c-3.683-9.645-13.081-16.136-23.387-16.136h-12.404c-13.807 0-25.038 11.231-25.038 25.038 0 3.171 0.611 6.326 1.784 9.299l152.262 380.631c3.485-1.255 7.201-2.065 11.115-2.065v-66.065c0-10.19 4.74-19.208 12.024-25.27l-116.356-305.433zM528.516-30.968h-33.032c-9.117 0-16.516 7.399-16.516 16.516v297.29h66.065v-297.29c0-9.117-7.399-16.516-16.516-16.516zM751.22-30.968h-12.404c-10.306 0-19.704 6.491-23.387 16.136l-116.356 305.433c7.284 6.061 12.024 15.079 12.024 25.27v66.065c3.914 0 7.63 0.809 11.115 2.065l152.246-380.598c1.189-3.022 1.8-6.161 1.8-9.332 0-13.807-11.231-25.038-25.038-25.038z" />
<glyph unicode="&#xe923;" d="M842.323 695.742h-363.355c-45.535 0-82.581 37.046-82.581 82.581v99.097c0 45.535 37.046 82.581 82.581 82.581h363.355c45.535 0 82.581-37.046 82.581-82.581v-99.097c0-45.535-37.046-82.581-82.581-82.581z" />
<glyph unicode="&#xe924;" d="M264.258 35.097c-45.535 0-82.581 37.046-82.581 82.581v2.956c0 11.231 2.246 22.181 6.656 32.52l37.723 87.981c6.54 15.294 21.537 25.187 38.202 25.187s31.661-9.893 38.202-25.204l37.69-87.948c4.443-10.356 6.673-21.306 6.673-32.537v-2.956c0.017-45.535-37.029-82.581-82.564-82.581z" />
<glyph unicode="&#xe925;" d="M974.452 844.387h-49.548v-33.032h49.548c9.1 0 16.516-7.416 16.516-16.516v-170.215c0-8.109-5.814-14.964-13.807-16.285l-341.174-56.865c-23.998-3.997-41.406-24.559-41.406-48.871v-71.118c-27.318 0-49.548-22.231-49.548-49.548v-198.194c0-27.318 22.231-49.548 49.548-49.548h33.032c27.318 0 49.548 22.231 49.548 49.548v198.194c0 27.318-22.231 49.548-49.548 49.548v71.118c0 8.109 5.814 14.964 13.807 16.285l341.174 56.865c23.998 3.997 41.406 24.559 41.406 48.871v170.215c0 27.318-22.231 49.548-49.548 49.548zM627.613 167.226h-33.032c-9.1 0-16.516 7.399-16.516 16.516v148.645h66.065v-148.645c0-9.117-7.416-16.516-16.516-16.516zM644.129 381.935v-16.516h-66.065v16.516c0 9.117 7.416 16.516 16.516 16.516h33.032c9.1 0 16.516-7.399 16.516-16.516z" />
<glyph unicode="&#xe926;" d="M264.258 728.774c-145.705 0-264.258-118.553-264.258-264.258v-99.097c0-18.217 14.815-33.032 33.032-33.032h0.066v-1.437l27.78-319.538c3.733-42.991 39.11-75.413 82.267-75.413h242.209c43.173 0 78.534 32.421 82.267 75.413l27.863 320.974c18.217 0 33.032 14.815 33.032 33.032v99.097c0 145.705-118.553 264.258-264.258 264.258zM495.484 365.419h-66.065v-33.032h32.966l-27.665-318.101c-2.23-25.798-23.453-45.254-49.35-45.254h-242.226c-25.897 0-47.137 19.456-49.367 45.254l-27.714 318.101h330.323v33.032h-363.355v33.032h462.452v-33.032zM495.484 431.484h-462.452v33.032c0 127.505 103.721 231.226 231.226 231.226s231.226-103.721 231.226-231.226v-33.032z" />
<glyph unicode="&#xe927;" d="M462.452 794.839h33.032v-33.032h-33.032v33.032z" />
<glyph unicode="&#xe928;" d="M528.516 794.839h330.323v-33.032h-330.323v33.032z" />
<glyph unicode="&#xe929;" d="M82.581 381.935h99.097v-33.032h-99.097v33.032z" />
<glyph unicode="&#xe92a;" d="M82.581 315.871h99.097v-33.032h-99.097v33.032z" />
<glyph unicode="&#xe92b;" d="M1024 35.097h-363.355v231.226h363.355v-231.226z" />
<glyph unicode="&#xe92c;" d="M693.677 167.226h33.032v-99.097h33.032v99.097h33.032v-99.097h33.032v99.097h33.032v-99.097h33.032v99.097h33.032v-33.032h33.032v33.032h33.032v33.032h-297.29z" />
<glyph unicode="&#xe92d;" d="M924.903 101.161h33.032v-33.032h-33.032v33.032z" />
<glyph unicode="&#xe92e;" d="M932.055 728.46c5.814 9.827 9.365 21.124 9.365 33.346 0 36.435-29.63 66.065-66.065 66.065-4.41 0-8.704-0.479-12.866-1.305l0.198 0.842-412.903 99.097-46.509 0.396-33.082 33.098h-44.874l-259.254-172.841v-173.997h-66.065v-198.194h66.065v-478.968h132.129v693.677h66.065v-693.677h297.29v660.645h231.226v-264.258h0.512c-20.232-15.063-33.544-38.962-33.544-66.065h33.032c0 27.318 22.231 49.548 49.548 49.548s49.548-22.231 49.548-49.548h33.032c0 27.103-13.312 51.002-33.544 66.065h0.512v264.258h132.129v39.87l-91.945 91.945zM297.29 712.258l88.097-66.065-88.097-66.065v132.129zM330.306 563.613l82.597 61.935 82.597-61.935h-165.194zM495.5 530.581l-82.597-61.935-82.597 61.935h165.194zM297.29 514.065l88.097-66.065-88.097-66.065v132.129zM330.306 365.419l82.597 61.935 82.597-61.935h-165.194zM495.5 332.387l-82.597-61.935-82.597 61.935h165.194zM297.29 315.871l88.097-66.065-88.097-66.065v132.129zM412.903 229.161l82.597-61.935h-165.194l82.597 61.935zM297.29 117.677l29.713-22.28 19.803 26.426-16.5 12.371h165.178l-82.581-61.935-41.703 31.282-19.803-26.426 33.99-25.501-88.097-66.065v132.129zM412.903 30.968l82.597-61.935h-165.194l82.597 61.935zM440.419 51.613l88.097 66.065v-132.129l-88.097 66.065zM440.419 249.806l88.097 66.065v-132.129l-88.097 66.065zM440.419 448l88.097 66.065v-132.129l-88.097 66.065zM440.419 646.194l26.426 19.819-19.803 26.426-34.139-25.617-82.597 61.952h165.178l-22.429-16.83 19.803-26.426 35.658 26.74v-132.129l-88.097 66.065zM644.129 702.58l-26.195 26.195h52.389l-26.195-26.195zM710.194 721.937l26.195-26.195h-52.389l26.195 26.195zM736.388 662.71l-26.195-26.195-26.195 26.195h52.389zM750.063 728.774h52.389l-26.195-26.195-26.195 26.195zM561.548 761.806v6.838l-40.431 40.431 224.52-47.269h-184.089zM561.548 728.774h9.678l33.032-33.032h-42.711v33.032zM670.324 629.677h-52.389l26.195 26.195 26.195-26.195zM776.258 655.872l26.195-26.195h-52.389l26.195 26.195zM832.413 712.010c11.578-9.992 26.475-16.268 42.942-16.268 12.222 0 23.519 3.551 33.346 9.365l9.365-9.365h-101.938l16.285 16.268zM908.387 761.806c0-18.217-14.815-33.032-33.032-33.032s-33.032 14.815-33.032 33.032 14.815 33.032 33.032 33.032 33.032-14.815 33.032-33.032zM443.987 893.935l379.921-91.186c-5.021-6.293-8.836-13.444-11.297-21.289l-297.208 62.58-29.531 0.281-49.614 49.614h7.73zM521.678 761.806h-276.117l110.113 165.161h0.842l165.161-165.161zM99.097 769.486l201.414 134.276-94.637-141.956h-106.777v7.68zM99.097 728.774h66.065v-181.677h-66.065v181.677zM33.032 580.129h33.032v-66.065h99.097v-66.065h-132.129v132.129zM99.097-30.968v445.935h66.065v-445.935h-66.065zM198.194 662.71v66.065h66.065v-66.065h-66.065zM561.548 662.71h42.711l-33.032-33.032h-9.678v33.032zM858.839 347.235c-5.335 1.090-10.868 1.668-16.516 1.668s-11.181-0.578-16.516-1.668v249.41h33.032v-249.41zM849.16 629.677l-33.032 33.032h134.97l33.032-33.032h-134.97z" />
<glyph unicode="&#xe92f;" d="M148.959 419.212c0 8.126 1.404 16.169 4.162 23.816l109.568 304.343-14.633-2.081c-16.896 0-165.161-2.329-165.161-82.581 0-38.796 15.261-58.946 26.459-72.374l-3.155-34.684c-2.494-2.494-5.087-4.938-7.878-7.482-14.237-12.883-31.942-28.936-31.942-67.138 0-59.078 72.126-95.827 75.198-97.363l17.804-0.859c-6.491 10.653-10.422 23.023-10.422 36.402z" />
<glyph unicode="&#xe930;" d="M585.084 515.601l-8.374 9.117c-14.105 15.277-27.4 29.696-32.223 44.131-5.318 16.021 1.899 34.205 10.29 55.279 12.106 30.456 27.186 68.36 5.335 112.045-37.31 74.587-176.789 32.884-199.68 25.435l114.688-318.563c2.758-7.647 4.162-15.69 4.162-23.816 0-20.843-9.249-39.374-23.668-52.241 8.506-6.012 17.573-10.901 27.153-14.171 10.603-3.634 21.289-5.384 31.744-5.384 31.232 0 60.366 15.707 79.145 44.214 21.735 32.917 27.483 84.034-8.572 123.954z" />
<glyph unicode="&#xe931;" d="M1024 960h-1024v-858.839h231.54v-115.613c0-27.318 22.231-49.548 49.548-49.548h66.065c27.318 0 49.548 22.231 49.548 49.548v115.613h627.299v858.839zM990.968 794.839h-198.194v66.065h-33.032v-66.065h-231.226v132.129h231.226v-33.032h33.032v33.032h198.194v-132.129zM660.645 299.355v132.129h214.71v-132.129h-214.71zM363.669 299.355v33.032h45.304c47.864 0 86.825 38.945 86.825 86.825 0 10.058-1.718 19.968-5.153 29.415l-114.341 317.671c36.253 9.959 116.356 26.624 161.164-4.509h90.145v-132.129h-70.656c-0.727-1.85-1.47-3.766-2.18-5.566-3.881-9.761-7.465-18.878-9.711-27.466h214.677v-132.129h-149.933c1.751-11.214 1.486-22.363-0.413-33.032h18.217v-132.129l-263.944 0.017zM366.030 794.839l-14.253 39.589c-5.715 15.839-20.843 26.475-37.657 26.475s-31.959-10.636-37.64-26.459l-12.222-33.924v126.447h231.226v-132.129h-129.453zM307.547 823.263c1.965 5.516 11.148 5.516 13.147 0l138.884-385.817c2.114-5.847 3.171-11.974 3.171-18.217 0-29.663-24.13-53.793-53.793-53.793h-45.304v148.645c0 27.318-22.231 49.548-49.548 49.548s-49.548-22.231-49.548-49.548v-148.645h-45.304c-29.663 0-53.793 24.13-53.793 53.793 0 6.243 1.057 12.371 3.171 18.234l138.917 385.8zM297.604 514.065c0 9.1 7.399 16.516 16.516 16.516s16.516-7.416 16.516-16.516v-99.097h-0.314v-115.613h-32.718v214.71zM875.355 761.806v-132.129h-214.71v132.129h214.71zM908.387 431.484h82.581v-132.129h-82.581v132.129zM792.774 464.516v132.129h198.194v-132.129h-198.194zM908.387 629.677v132.129h82.581v-132.129h-82.581zM33.032 926.968h198.194v-132.129h-198.194v132.129zM74.19 448h-41.158v148.645h71.267c-6.227 8.126-12.717 18.647-16.913 33.032h-54.355v132.129h66.065v-59.326c8.687 9.216 20.117 16.533 33.032 22.198v37.128h118.189l-112.739-313.162c-3.419-9.464-5.153-19.357-5.153-29.432 0-47.864 38.945-86.825 86.825-86.825h45.304v-33.032h-132.426v89.65c-8.374 5.070-20.992 13.692-33.032 25.369v-115.018h-66.065v115.613h65.453c-9.414 9.216-18.267 20.282-24.295 33.032zM33.032 134.194v132.129h201.546c-1.85-5.186-3.039-10.702-3.039-16.516v-115.613h-198.507zM363.669-14.452c0-9.117-7.399-16.516-16.516-16.516h-66.065c-9.117 0-16.516 7.399-16.516 16.516v264.258c0 9.117 7.399 16.516 16.516 16.516h66.065c9.117 0 16.516-7.399 16.516-16.516v-264.258zM393.645 266.323h101.838v-33.032h33.032v33.032h231.226v-132.129h-231.226v66.065h-33.032v-66.065h-98.783v115.613c0 5.814-1.206 11.33-3.055 16.516zM792.774 134.194v132.129h198.194v-132.129h-198.194z" />
<glyph unicode="&#xe932;" glyph-name="menu" d="M982.636 489.364h-941.272c-22.844 0-41.364-18.518-41.364-41.364s18.52-41.364 41.364-41.364h941.272c22.846 0 41.364 18.518 41.364 41.364 0 22.844-18.518 41.364-41.364 41.364zM982.636 803.122h-941.272c-22.844 0-41.364-18.52-41.364-41.364s18.52-41.364 41.364-41.364h941.272c22.846 0 41.364 18.52 41.364 41.364s-18.518 41.364-41.364 41.364zM982.636 175.606h-941.272c-22.844 0-41.364-18.518-41.364-41.364s18.52-41.364 41.364-41.364h941.272c22.846 0 41.364 18.518 41.364 41.364s-18.518 41.364-41.364 41.364z" />
<glyph unicode="&#xe933;" glyph-name="close" d="M1011.886 947.884c-16.154 16.154-42.344 16.154-58.498 0l-941.272-941.27c-16.154-16.154-16.154-42.344 0-58.498 8.076-8.080 18.664-12.116 29.25-12.116s21.172 4.038 29.25 12.118l941.27 941.27c16.152 16.152 16.152 42.342 0 58.496zM1011.884 6.612l-941.272 941.27c-16.152 16.154-42.344 16.154-58.496 0-16.154-16.152-16.154-42.342 0-58.496l941.272-941.272c8.076-8.078 18.664-12.116 29.25-12.116s21.174 4.038 29.248 12.114c16.15 16.156 16.15 42.346-0.002 58.5z" />
</font>
</defs>
</svg>
